<svg xmlns="http://www.w3.org/2000/svg" viewBox="0 0 64 64"><title>Rynke-Coin</title><!-- Generated by scripts/icons.mjs; edit that, then run pnpm icons. --><circle cx="32" cy="32" r="31" fill="#111111"/><circle cx="32" cy="32" r="28" fill="#ffffff" stroke="#c8982f" stroke-width="3"/><g transform="translate(32 34) scale(0.155) translate(-345 -172)"><circle cx="243" cy="168" r="30" fill="#e96d2a" stroke="#111111" stroke-width="11"/><circle cx="243" cy="168" r="14" fill="#f7a56e"/><circle cx="447" cy="168" r="30" fill="#e96d2a" stroke="#111111" stroke-width="11"/><circle cx="447" cy="168" r="14" fill="#f7a56e"/><path d="M345 85C410 85 452 130 452 195C452 265 410 315 345 315C280 315 238 265 238 195C238 130 280 85 345 85Z" fill="#e96d2a" stroke="#111111" stroke-width="11" stroke-linejoin="round"/><path d="M345 135C372 125 410 130 418 160C424 185 420 205 425 232C430 275 395 300 345 300C295 300 260 275 265 232C270 205 266 185 272 160C280 130 318 125 345 135Z" fill="#f7a56e"/><circle cx="325" cy="158" r="10" fill="#111111"/><circle cx="385" cy="158" r="10" fill="#111111"/><ellipse cx="350" cy="192" rx="7" ry="5" fill="#8a4a24"/><ellipse cx="372" cy="192" rx="7" ry="5" fill="#8a4a24"/><path d="M310 228Q350 260 400 230" fill="none" stroke="#8a4a24" stroke-width="9" stroke-linecap="round"/><path d="M238 128C232 70 280 28 345 28C410 28 455 70 450 128C380 118 310 118 238 128Z" fill="#fdcb0a" stroke="#111111" stroke-width="11" stroke-linejoin="round"/><path d="M292 52L280 92M330 40L324 84M370 40L376 84M408 54L420 92" stroke="#d9a514" stroke-width="12" stroke-linecap="round"/></g></svg>
